<?xml version="1.0" encoding="utf-8"?>
<!-- Generator: Adobe Illustrator 25.3.1, SVG Export Plug-In . SVG Version: 6.00 Build 0)  -->
<svg version="1.1" id="레이어_1" xmlns="http://www.w3.org/2000/svg" xmlns:xlink="http://www.w3.org/1999/xlink" x="0px"
	 y="0px" viewBox="0 0 1642 780" style="enable-background:new 0 0 1642 780;" xml:space="preserve">
<style type="text/css">
	.st0{fill:#A6A6A6;}
</style>
<path class="st0" d="M126.3,155.6c-42.1,28-74.4,64.2-93.7,111.2c0.4,0.3,0.7,0.6,1.1,0.9c2.1-2.9,4.3-5.9,6.4-8.8
	c36.8-48.8,78.7-92,132.5-122.4c38.5-21.8,79.5-37.5,121.7-50c50.2-14.9,101.5-25,153.3-32.2C539.9,41.5,632.7,37,725.8,39.7
	c47.3,1.4,94.6,3.4,141.7,7.4c47.3,4,94.3,10.4,141.4,16.5c26.1,3.4,51.9,8.5,78,12.1c31.2,4.3,62.5,7.5,93.7,11.8
	c50.4,7,100.2,16.9,149.4,29.8c37.6,9.8,75.1,20.1,110.7,35.6c63.4,27.5,117.1,67.8,157.8,124.3c19.5,27,32.9,57,39.3,89.8
	c6.3,32.5,3.7,64.4-7.9,95.4c-15.7,41.9-41.5,77-72.9,108.5c-20.9,21-41.8,42-66.6,58.6c-39.8,26.7-83.2,45.5-128.6,60.2
	c-56,18.1-113.4,29.6-171.6,37.5c-87.9,11.9-176.3,15.4-264.8,13.2c-62.5-1.5-124.8-5.9-186.9-13c-55.6-6.3-111-14.6-165.9-25.3
	c-50.5-9.8-100.4-22.3-150.1-36c-19.5-5.4-39.8-7.9-59.7-11.9c-54.2-11-108.1-23.6-159.6-44c-61.9-24.6-115-62-156.6-114.7
	c-21-26.6-35.7-56.4-42.8-89.7c-6.2-29.1-4.7-58,5-86.2c6.8-19.6,12.9-39.5,20.8-58.7c16.2-39,42.8-70.1,76.1-95.7
	c4.6-3.6,9.4-6.9,14.3-10c1.5-0.9,3.7-0.7,5.6-1C125.9,154.5,126.1,155,126.3,155.6L126.3,155.6z M1031.9,71.1
	c0-0.2,0.1-0.4,0.1-0.6c-0.9-0.2-1.8-0.5-2.8-0.6c-51.6-6.4-103-13.9-154.7-19c-73.5-7.3-147.3-9.6-221.2-8.5
	c-87.6,1.4-174.7,8-261,24.2c-48.7,9.1-96.6,21.2-143,38.6c-35.9,13.4-70.4,29.5-101.7,51.8c-38.6,27.4-71,61.3-99.4,98.9
	c-14.8,19.5-27.9,39.9-29.2,65.9c-1.1,21.8,0.8,42.9,7.4,63.6c7.1,22.2,19.8,41.2,33.9,59.4c35.7,46.1,80.2,82.4,128.8,114
	c56.9,37.1,118.2,64.9,182.4,86.5c17.7,5.9,35.4,12.6,53.6,15.8c32.1,5.6,64.6,9.6,97.1,12.6c41.8,3.9,83.7,7.1,125.6,9.2
	c85.4,4.3,170.9,4.3,256.4,1.9c69.3-2,138.6-4.6,207.9-7c33.3-1.2,66.6-2.7,99.9-4c1.8-0.1,3.6,0.4,5.4,0.6v1.6
	c-1.8,0.3-3.6,0.8-5.4,0.9l-166.8,6.9c-106.6,4.3-213.2,7.6-319.9,4.9c-54.1-1.4-108.2-4.4-162.3-7.8c-29.9-1.9-59.7-6-89.5-9.2
	c-7.1-0.7-14.1-1.7-21.2-2.6c0.8,1.1,1.7,1.4,2.7,1.7c13.2,3.4,26.4,7,39.7,10.3c88.5,21.5,178.2,36.1,268.8,45.3
	c76.8,7.8,153.9,11.6,231.1,10.6c92-1.1,183.4-8.3,273.7-26.8c49.5-10.2,98.1-23.9,144.6-43.8c39.3-16.9,76.1-37.7,107.9-66.7
	c1.4-1.3,3-2.3,5.3-4c-4.1,0.3-6.4,0.4-8.8,0.6c-0.1-0.5-0.2-1-0.2-1.6c1.3-0.9,2.7-1.8,4-2.8c11.8-9.5,24.4-18.2,35.1-28.7
	c36.3-35.7,61.6-77.4,66.1-129.6c1.6-18.5-0.5-36.6-5.6-54.3c-5.8-20.3-16.7-37.9-29.3-54.5c-28.8-37.9-64.3-68.6-103.1-95.8
	c-56.5-39.5-117.9-69.4-182.8-92.4c-53.4-18.9-108-33.9-163.3-46c-22.3-4.8-44.6-10.5-67.2-12.3c-53-4.3-106.1-7.4-159.2-9.2
	c-108.1-3.7-216.3-1-324.4,2.3C535.6,73,483.8,74.8,432,76.5c-1.8,0.1-3.6-0.4-5.3-0.6c0-0.6,0-1.1-0.1-1.7c1.8-0.3,3.5-0.9,5.3-0.9
	c97.9-3.1,195.9-6.7,293.8-9.1c82.5-2,165-0.7,247.4,3.6C992.7,68.9,1012.3,70.1,1031.9,71.1L1031.9,71.1z M1624.4,458.4
	c0.4,0.1,0.7,0.2,1.1,0.3c1.3-4.4,2.7-8.8,3.9-13.2c9.8-35,7.4-69.6-3.9-103.7c-10.5-31.6-27-60-48.9-85
	c-47.4-53.9-105.4-91.8-173.6-114.2c-50.7-16.7-102.1-30.6-154.6-40c-36.4-6.5-73-11.8-109.5-17.5c-2.1-0.3-4.3-0.3-6.4-0.5
	c0.7,1.3,1.5,1.6,2.3,1.8c39.8,10.3,79.9,19.6,119.3,31.1c80.7,23.6,157.2,56.8,227.1,104.2c43.1,29.2,82.2,62.8,113.7,104.6
	c26.9,35.6,38.7,75,31.6,119.4C1625.8,449.9,1625.1,454.1,1624.4,458.4L1624.4,458.4z M13.8,324.4C5.1,349.6,3.5,375.2,8.5,401
	c6.3,32.9,20.1,62.6,40.4,89.1c44,57.4,101.4,96.7,168.7,121.5c42.2,15.5,85.9,26.3,129.8,35.8c12.2,2.6,24.4,4.9,36.6,7.3
	c-3.7-2.2-7.6-3.6-11.6-4.9c-76.8-25.7-149.3-59.9-215.1-107.4c-43.7-31.6-83-67.6-113.8-112.3c-19.7-28.6-31.1-59.7-29.7-94.9
	C13.9,331.6,13.8,328,13.8,324.4L13.8,324.4z"/>
</svg>
