<?xml version="1.0" encoding="utf-8"?>
<!-- Generator: Adobe Illustrator 25.3.1, SVG Export Plug-In . SVG Version: 6.00 Build 0)  -->
<svg version="1.1" id="레이어_1" xmlns="http://www.w3.org/2000/svg" xmlns:xlink="http://www.w3.org/1999/xlink" x="0px"
	 y="0px" viewBox="0 0 1642 708" style="enable-background:new 0 0 1642 708;" xml:space="preserve">
<style type="text/css">
	.st0{fill:#A6A6A6;}
</style>
<path class="st0" d="M1598.4,236.9c-17.9-30.9-41.8-56.3-70.9-77.4c2.5-3.2,4.5-1.8,6.8-0.2c15.4,11.3,29.3,24.1,41.9,38.4
	c18.8,21.1,31.9,45.6,44,70.9c11.6,24.2,19.2,49,18.7,75.9c-0.7,36.2-11.7,69.3-30.8,99.9c-16.9,27.2-38.6,50-64.3,69
	c-2.1,1.5-4.2,3.5-7.1,0.2c30.9-22.4,55.9-49.8,73.9-83.4c8.4-15.6,14.3-32.2,18.4-49.4c1-4.1,1.5-8.4,2.2-12.6l-1.2-0.3
	c-1.2,4.4-2.4,8.8-3.5,13.2c-5.7,22.3-17.3,41.6-31.2,59.6c-32.4,41.9-72.4,75.1-116.4,103.8c-67.9,44.5-142,75.3-219.8,97.5
	c-60.6,17.3-122,31-184.3,39.9c-48.1,6.9-96.3,13.2-144.7,17.6c-96.2,8.8-192.6,10.3-289.1,5.2c-53.3-2.8-106.4-7.7-159.1-15.7
	c-75.4-11.3-149.6-27.9-220.9-55.6c-44-17.1-86.1-37.9-123.1-67.5c-16.4-13.2-31.2-28.5-46.8-42.8c-20-18.3-37.9-38.2-51.9-61.5
	c-13-21.7-22.2-45-29-69.3C4.5,371.9,2,351.2,3.7,330c2.1-26.4,9.8-51.2,21.5-74.8c24.8-49.7,63.5-86.5,108.7-117.1
	c37.9-25.7,79.3-43.3,123.4-55.4c23.1-6.3,45.3-15.6,68.4-22.1c31.4-8.9,62.9-17.4,94.8-24.2c34.7-7.3,69.7-13.6,104.8-18.2
	c42.3-5.5,84.8-9.4,127.3-12.8c63-4.9,126.2-5.9,189.3-4c43.8,1.3,87.5,3.8,131.2,6.8c57.5,4,114.7,11.3,171.4,21.2
	c84.4,14.6,167.4,34.2,246.5,67.9c53.2,22.7,103.6,50.4,149.2,86.4c20.2,15.9,38.9,33.3,55.7,52.8c0.4,0.5,0.4,1.3,0.6,2
	C1597.3,238,1597.9,237.4,1598.4,236.9L1598.4,236.9z M1231.4,64.4c-0.1,0.7-0.3,1.4-0.4,2c-1.8,0-3.5,0.1-5.3,0
	c-28.4-2.2-56.8-4.6-85.2-6.7c-80.1-5.8-160.2-12.5-240.4-16.8c-68.4-3.7-136.9-5.3-205.3-6.4c-72.5-1.2-144.9,2.4-217.1,9.7
	c-54,5.5-107.5,14.3-160.7,25.2c-59.2,12.1-112.2,37.6-161,72.3C115.5,172.5,83.8,210,55.5,250.4c-22.9,32.7-38.4,68.3-39.8,109
	c-0.7,19.1,2.2,37.5,8.7,55.4c6.4,17.6,15.8,33.7,26.5,49c17.2,24.8,35.3,49.1,58.7,68.3c39.8,32.5,84.6,56.2,134.1,70.2
	c77.8,22,157.4,33.9,237.9,40.6c55.5,4.6,111.1,6.5,166.8,6.5c79.2,0,158.3-2.9,237.2-9.2c91-7.3,182-15.6,272.9-23.5
	c26.2-2.3,52.4-5.1,78.6-7.6c1.7-0.2,3.5,0.2,5.2,0.4v1.6c-1.7,0.4-3.3,0.9-5,1.1c-30.5,3-61,6.3-91.5,9
	c-86.5,7.6-172.9,15.7-259.5,22.3c-110.9,8.4-222,12.4-333.2,7c-42.1-2-84.1-5.4-126-9.6c-47.2-4.8-93.9-13.1-140.2-23.6
	c-39.9-9.1-79.2-20-115.4-39.6c-13.3-7.2-26.3-14.9-39.4-22.3c-0.3,0.3-0.7,0.6-1,0.9c0.8,0.2,1.7,0.3,2.3,0.8
	c4.6,3.6,9,7.4,13.7,10.9c34.9,26.3,73.5,45.6,114,61.6c65.5,25.8,133.7,41.9,203,53.3c56.8,9.3,114,15.1,171.4,18.3
	c83.1,4.6,166.2,4,249.3-1.4c57.7-3.8,115.1-9.7,172.3-18.2c62.9-9.4,125.2-21.9,186.6-38.8c87-23.9,169.6-57.8,244.2-109.3
	c37.4-25.9,71.5-55.4,100.1-91c21.6-26.9,35.6-56.7,38.6-91.4c1.6-19.1-0.4-38-4.8-56.5c-2.7-11.7-6.2-23.2-13.1-33.3
	c-18-26.3-40.3-48.6-64.8-68.7c-53.5-43.8-113.7-76-177.9-101c-70.4-27.5-143.6-44.6-217.9-57.7c-77.3-13.6-155.3-21.8-233.7-26.1
	c-58.2-3.2-116.5-4.1-174.9-2.6C662.3,7.1,585.4,12.9,509,24.1c-59.9,8.8-119,21-177.1,38.4c-2.2,0.7-4.5,1.3-6.7,2.1
	c-2.1,0.7-4.3,1.5-6.4,2.3c0.8,0.7,1.3,0.9,1.7,0.8c52.3-11.3,105-20,158.3-24.3c50-4,100-7.7,150.1-9.1c51.3-1.4,102.7-0.8,154,0.4
	c107.8,2.5,215.4,10.6,322.9,19.2c40,3.2,80.1,6.4,120.1,9.6C1227.7,63.4,1229.6,64,1231.4,64.4L1231.4,64.4z M232.7,95
	c-0.1-0.2-0.1-0.4-0.2-0.6c-0.5,0-1,0-1.4,0.2c-1.3,0.4-2.5,0.8-3.8,1.2c-37.2,12.7-71.4,31.1-103,54.3
	c-50,36.8-89.7,81.5-108,142.4c-5.2,17.3-8,35-7.6,53.2c0,1.5,0.4,2.9,0.6,4.4c1.1-0.7,1.4-1.4,1.4-2c2.2-20.9,8.2-40.7,17-59.7
	c12.8-27.5,30.6-51.6,49.7-75c35.9-44.1,78.4-80,129.4-105.5C215.4,103.6,224.1,99.3,232.7,95L232.7,95z"/>
</svg>
