<?xml version="1.0" encoding="utf-8"?>
<!-- Generator: Adobe Illustrator 25.3.1, SVG Export Plug-In . SVG Version: 6.00 Build 0)  -->
<svg version="1.1" id="레이어_1" xmlns="http://www.w3.org/2000/svg" xmlns:xlink="http://www.w3.org/1999/xlink" x="0px"
	 y="0px" viewBox="0 0 1642 780" style="enable-background:new 0 0 1642 780;" xml:space="preserve">
<style type="text/css">
	.st0{fill:#A6A6A6;}
</style>
<path class="st0" d="M1528.2,646.4c48.5-32.3,87.3-80.2,103.3-136.8c7.1-25.3,9.4-52,5.4-78c-4.1-27-15.4-51-30.6-73.5
	c-37.6-55.4-90.5-99.8-146.4-135.9c-43.4-28-89.6-51.3-137.6-70.3c-90.9-36.1-186.7-59.8-282.8-77.1
	C931.1,55.3,820.9,44.4,710.7,42.4c-104.1-1.9-209,3.7-311.4,23c-82.7,15.6-167.4,40-238.1,87c-35.8,23.8-66.6,55.2-94,88.1
	C32,282.7,4,333,3.1,389.2c-1,66.6,33.9,128.6,79.9,174.7c23.7,23.7,50.5,44.4,79.2,61.5c27.7,16.5,57,28.2,87.5,38.4
	c134.2,44.8,276.3,62.6,417.1,69.9c149.6,7.8,299.5,3.4,449.1-1.7c35.7-1.2,71.4-2.5,107.2-3.7c3.3-0.1,4.5-4.3,0.5-4.2
	c-146.7,4.8-293.5,11.3-440.3,9.1c-142.3-2.2-285.9-11.8-424.9-43.9c-32.6-7.5-64.9-16.3-96.8-26.6c-31-10-61.2-21.3-89.5-37.5
	C115.6,592.7,63.4,546,33.7,487.2c-15.4-30.5-25.1-64.2-24.6-98.5c0.4-28.4,7.8-56.1,20.1-81.7c22.2-46.2,58.5-86.2,95.8-120.8
	c58-53.8,136.1-83.2,211.5-102.7C432.7,58.6,532.7,49,631.8,46.7c107.5-2.4,215.2,4.4,321.7,18.9c100.3,13.7,200.1,34.2,296.5,65.4
	c100.5,32.5,197.5,78.7,277.6,148.5c24.9,21.7,47.9,45.7,67.2,72.4c16.6,22.9,29.9,47.2,35.2,75.2c10.4,54.8-8.2,111.8-41,155.8
	c-17.8,23.9-39.9,44.2-64.7,60.7C1521.1,646,1525.9,647.9,1528.2,646.4L1528.2,646.4z"/>
</svg>
