<svg xmlns="http://www.w3.org/2000/svg" viewBox="0 0 74 66" style="enable-background:new 0 0 74 66" xml:space="preserve"><path d="M25.7 10c-.1-.2-.2-.4-.3-.5s-.3-.2-.4-.3c-.2-.1-.4-.1-.6-.1H10.7c-.4 0-.8.1-1.1.4-.3.2-.4.7-.4 1.3V21c0 .1.1.3.2.4.1.1.2.2.4.3.1.1.4.1.9.1h13.9c.5 0 .7-.1.9-.1.2-.1.3-.2.4-.3.1-.1.1-.2.2-.4V10.8c-.2-.3-.3-.6-.4-.8zm-13.6 8.8v-6.7h10.7v6.7H12.1zm37.4 3c-.5 0-.8-.1-.9-.1-.2-.1-.3-.2-.4-.3-.1-.1-.1-.2-.2-.4V10.6c0-.4 0-.6.1-.8.1-.2.2-.3.3-.4.1-.1.3-.2.5-.2s.4-.1.7-.1h13.9c.4 0 .6 0 .8.1.2.1.3.2.4.3.1.1.1.2.2.3 0 .2.1.3.1.5s0 .3-.1.5c0 .1-.1.2-.2.4-.1.1-.2.2-.4.3-.2.1-.5.1-.8.1H51.1v2.6h12.3c.4 0 .6 0 .8.1.2.1.3.2.4.3.1.1.1.2.2.3 0 .2.1.3.1.5s0 .3-.1.5c0 .1-.1.2-.2.4-.1.1-.2.2-.4.3-.2.1-.5.1-.8.1H51.1v2.6h12.6c.4 0 .7.1.8.1.2.1.3.2.4.3.1.1.1.2.2.4 0 .2.1.3.1.5s0 .4-.1.5c0 .1-.1.2-.2.3-.1.1-.2.2-.4.3-.1.1-.4.1-.8.1H49.5z"/><path d="M2.5 0h30C33.9 0 35 1.1 35 2.5v8.6c0 .8-.7 1.5-1.5 1.5s-1.5-.7-1.5-1.5V3H3v25h29v-8.1c0-.8.7-1.5 1.5-1.5s1.5.7 1.5 1.5v8.6c0 1.4-1.1 2.5-2.5 2.5h-30C1.1 31 0 29.9 0 28.5v-26C0 1.1 1.1 0 2.5 0zm39.1 0h29.8C72.8 0 74 1.1 74 2.4v26.3c0 1.3-1.2 2.4-2.6 2.4h-9.8c-.8 0-1.5-.7-1.5-1.5s.7-1.5 1.5-1.5H71V3H42v25h9.5c.8 0 1.5.7 1.5 1.5s-.7 1.5-1.5 1.5h-9.8c-1.4 0-2.6-1.1-2.6-2.4V2.4C39 1.1 40.2 0 41.6 0zm0 28zM25.7 45c-.1-.2-.2-.4-.3-.5s-.3-.2-.4-.2c-.2-.1-.4-.1-.6-.1H10.7c-.4 0-.8.1-1.1.4-.3.2-.4.7-.4 1.3v10.2c0 .1.1.3.2.4.1.1.2.2.4.3.1.1.4.1.9.1h13.9c.5 0 .7-.1.9-.1.2-.1.3-.2.4-.3.1-.1.1-.2.2-.4V45.9c-.2-.4-.3-.7-.4-.9zm-13.6 8.8v-6.7h10.7v6.7H12.1zm37.4 3c-.5 0-.8-.1-.9-.1-.2-.1-.3-.2-.4-.3-.1-.1-.1-.2-.2-.4V45.6c0-.4 0-.6.1-.8.1-.2.2-.3.3-.4.1-.1.3-.2.5-.2s.4-.1.7-.1h13.9c.4 0 .6 0 .8.1.2.1.3.2.4.3.1.1.1.2.2.3 0 .2.1.3.1.5s0 .3-.1.5c0 .1-.1.2-.2.4-.1.1-.2.2-.4.3-.2.1-.5.1-.8.1H51.1v2.6h12.3c.4 0 .6 0 .8.1.2.1.3.2.4.3.1.1.1.2.2.3 0 .2.1.3.1.5s0 .3-.1.5c0 .1-.1.2-.2.4-.1.1-.2.2-.4.3-.2.1-.5.1-.8.1H51.1v2.6h12.6c.4 0 .7.1.8.1.2.1.3.2.4.3.1.1.1.2.2.4 0 .2.1.3.1.5s0 .4-.1.5c0 .1-.1.2-.2.3-.1.1-.2.2-.4.3-.1.1-.4.1-.8.1H49.5z"/><path d="M2.5 35h30c1.4 0 2.5 1.1 2.5 2.5v8.6c0 .8-.7 1.5-1.5 1.5s-1.5-.7-1.5-1.5V38H3v25h29v-8.1c0-.8.7-1.5 1.5-1.5s1.5.7 1.5 1.5v8.6c0 1.4-1.1 2.5-2.5 2.5h-30C1.1 66 0 64.9 0 63.5v-26C0 36.1 1.1 35 2.5 35zm39.1 0h29.8c1.4 0 2.6 1.1 2.6 2.4v26.3c0 1.3-1.2 2.4-2.6 2.4h-9.8c-.8 0-1.5-.7-1.5-1.5s.7-1.5 1.5-1.5H71V38H42v25h9.5c.8 0 1.5.7 1.5 1.5s-.7 1.5-1.5 1.5h-9.8c-1.4 0-2.6-1.1-2.6-2.4V37.4c-.1-1.3 1.1-2.4 2.5-2.4zm0 28z"/></svg>